<svg xmlns="http://www.w3.org/2000/svg" xmlns:xlink="http://www.w3.org/1999/xlink" width="500" zoomAndPan="magnify" viewBox="0 0 375 374.999991" height="500" preserveAspectRatio="xMidYMid meet" version="1.0"><defs><clipPath id="319ac5fddb"><path d="M 74.292969 58.121094 L 300.792969 58.121094 L 300.792969 123 L 74.292969 123 Z M 74.292969 58.121094 " clip-rule="nonzero"/></clipPath><clipPath id="4132ee2e87"><path d="M 90 139 L 285 139 L 285 316.871094 L 90 316.871094 Z M 90 139 " clip-rule="nonzero"/></clipPath></defs><g clip-path="url(#319ac5fddb)"><path fill="#737373" d="M 292.613281 89.859375 L 236.011719 89.859375 L 236.011719 66.207031 C 236.011719 61.761719 232.375 58.121094 227.925781 58.121094 L 147.066406 58.121094 C 142.621094 58.121094 138.980469 61.761719 138.980469 66.207031 L 138.980469 89.859375 L 82.378906 89.859375 C 77.933594 89.859375 74.292969 93.496094 74.292969 97.945312 L 74.292969 114.117188 C 74.292969 118.5625 77.933594 122.203125 82.378906 122.203125 L 292.613281 122.203125 C 297.0625 122.203125 300.699219 118.5625 300.699219 114.117188 L 300.699219 97.945312 C 300.699219 93.496094 297.0625 89.859375 292.613281 89.859375 Z M 292.613281 89.859375 " fill-opacity="1" fill-rule="nonzero"/></g><g clip-path="url(#4132ee2e87)"><path fill="#737373" d="M 109.871094 309.796875 C 110.277344 313.839844 113.710938 316.871094 117.957031 316.871094 L 257.238281 316.871094 C 261.28125 316.871094 264.71875 313.839844 265.324219 309.796875 L 284.730469 139.183594 L 90.464844 139.183594 Z M 219.839844 283.515625 L 233.992188 170.515625 C 234.597656 166.070312 238.640625 163.035156 243.085938 163.441406 C 247.535156 164.046875 250.566406 168.089844 250.164062 172.539062 L 236.011719 285.539062 C 235.40625 289.582031 231.96875 292.613281 227.925781 292.613281 C 227.523438 292.613281 227.320312 292.613281 226.914062 292.613281 C 222.46875 292.007812 219.4375 287.964844 219.839844 283.515625 Z M 179.410156 171.527344 C 179.410156 167.078125 183.050781 163.441406 187.496094 163.441406 C 191.945312 163.441406 195.582031 167.078125 195.582031 171.527344 L 195.582031 284.527344 C 195.582031 288.976562 191.945312 292.613281 187.496094 292.613281 C 183.050781 292.613281 179.410156 288.976562 179.410156 284.527344 Z M 131.90625 163.441406 C 136.351562 162.835938 140.394531 166.070312 141.003906 170.515625 L 155.152344 283.515625 C 155.757812 287.964844 152.523438 292.007812 148.078125 292.613281 C 147.671875 292.613281 147.472656 292.613281 147.066406 292.613281 C 143.023438 292.613281 139.585938 289.582031 138.980469 285.539062 L 124.832031 172.539062 C 124.425781 168.089844 127.457031 164.046875 131.90625 163.441406 Z M 131.90625 163.441406 " fill-opacity="1" fill-rule="nonzero"/></g></svg>